<svg width="25" height="26" viewBox="0 0 25 26" fill="none" xmlns="http://www.w3.org/2000/svg">
<path d="M15.625 18.2083H20.8333L19.3699 16.7449C18.973 16.348 18.75 15.8097 18.75 15.2484V11.9583C18.75 9.23705 17.0108 6.92197 14.5833 6.06397V5.70833C14.5833 4.55774 13.6506 3.625 12.5 3.625C11.3494 3.625 10.4167 4.55774 10.4167 5.70833V6.06397C7.98919 6.92197 6.25001 9.23705 6.25001 11.9583V15.2484C6.25001 15.8097 6.02703 16.348 5.63014 16.7449L4.16667 18.2083H9.37501M15.625 18.2083V19.25C15.625 20.9759 14.2259 22.375 12.5 22.375C10.7741 22.375 9.37501 20.9759 9.37501 19.25V18.2083M15.625 18.2083H9.37501" stroke="#3F3F46" stroke-width="1.2" stroke-linecap="round" stroke-linejoin="round"/>
</svg>
