<svg width="25" height="24" viewBox="0 0 25 24" fill="none" xmlns="http://www.w3.org/2000/svg">
<path fill-rule="evenodd" clip-rule="evenodd" d="M8.63086 10.2999C8.63086 8.15994 10.3709 6.43994 12.5009 6.43994C14.6309 6.43994 16.3709 8.16994 16.3709 10.3099C16.3709 12.4499 14.6309 14.1699 12.5009 14.1699C10.3709 14.1699 8.63086 12.4399 8.63086 10.2999ZM10.1309 10.3099C10.1309 11.6199 11.1909 12.6799 12.5009 12.6799C13.8109 12.6799 14.8709 11.6199 14.8709 10.3099C14.8709 8.99994 13.8009 7.93994 12.5009 7.93994C11.2009 7.93994 10.1309 8.99994 10.1309 10.3099Z" fill="#4F46E5"/>
<path fill-rule="evenodd" clip-rule="evenodd" d="M8.36969 21.09C5.41969 18.25 2.15969 13.72 3.38969 8.33C4.49969 3.44 8.76969 1.25 12.4997 1.25C12.4997 1.25 12.4997 1.25 12.5097 1.25C16.2397 1.25 20.5097 3.44 21.6197 8.34C22.8397 13.73 19.5797 18.25 16.6297 21.09C15.4697 22.2 13.9797 22.76 12.4997 22.76C11.0197 22.76 9.52969 22.2 8.36969 21.09ZM4.85969 8.66C3.77969 13.37 6.73969 17.43 9.41969 20C11.1497 21.67 13.8597 21.67 15.5897 20C18.2597 17.43 21.2197 13.37 20.1597 8.66C19.1597 4.3 15.4097 2.75 12.4997 2.75C9.58969 2.75 5.84969 4.3 4.85969 8.66Z" fill="#4F46E5"/>
</svg>
